<svg id="copy" height="16" viewBox="0 0 16 16" width="16" xmlns="http://www.w3.org/2000/svg"><path d="m13.0086957 9.50031165c.4173913.24008033 1.147826.61734945 1.1130434 1.30329325 0 .548755-.4521739 1.0289157-1.1130434.9946185-.6608696-.0342972-.8-.5830522-1.3217392-.720241-1.1826087-.3086747-1.94782607.4458635-2.57391302 1.0975101-.66086957.6516466-1.46086957 1.440482-2.15652174 2.1264258-.34782609.3429719-.8.7545382-.97391304 1.1661045-.55652174 1.3032932.4173913 2.8466668 2.05217391 2.4351005.46260869-.1200401.80591304-.4081365 1.12535652-.7231219l.2701913-.2732801c.0448-.0455466.08966957-.0908189.13488696-.1354053.45217391-.4458634.86956521-.8574297 1.32173911-1.268996.4869565.4458635 1.7391305.6516466 2.5043478.3429719-.5565217.5830522-1.1826086 1.2004017-1.8086956 1.8177511-.5565217.548755-1.1826087 1.268996-1.84347827 1.6805623-.86956521.5487551-2.08695652.8231326-3.09565217.5487551-1.35652174-.3429719-2.29565217-1.4747792-2.64347826-2.8466668v-1.5090764c.34782609-1.7491567 1.49565217-2.5722893 2.74782609-3.8069882.76521739-.7545382 1.49565217-1.6119679 2.19130434-2.0578314 1.11304347-.720241 2.81739127-.85742976 4.06956527-.17148595zm3.6173913-5.48755048c1.8434782.13718876 3.373913 1.71485953 3.373913 3.66979938 0 2.02353424-1.2869565 2.91526115-2.4 4.01277125-.5217391.5144579-1.0434783 1.0632129-1.6 1.611968-.9043478.8917269-1.8782609 1.8177511-3.7217391 1.6805623-.5217392-.0342972-1.1826087-.2400803-1.6347826-.4801606-.4869566-.2743776-1.11304352-.7545382-1.00869569-1.4747792.03478261-.3772691.52173909-.9260242 1.18260869-.8231326.5565217.1028916.6608696.4801607 1.1130435.6516466 1.1130435.4458635 2.0869565-.4115663 2.6434782-.9603213.626087-.6173494 1.3565218-1.3718876 2.0173913-2.02353426.626087-.61734942 1.7391305-1.47477919 1.2173914-2.81236962-.3478261-.89172695-1.6-1.30329323-2.6086957-.720241-.8695652.51445786-1.3565217 1.440482-2.3304348 2.12642581-.4869565-.41156628-1.7043478-.65164661-2.4347826-.3429719-.1391304-.03429719.1043478-.20578314.1739131-.27437752.6608695-.68594381 1.4260869-1.40618481 2.1217391-2.09212862.9391304-.89172696 1.9130435-1.88634548 3.8956522-1.74915672z" transform="translate(-4 -4)"></path></svg>
