<svg id="linkedin" height="20" viewBox="0 0 20 20" width="20" xmlns="http://www.w3.org/2000/svg"><path d="m6.34782609 7.95652174v13.04347826h-4.34782609v-13.04347826zm10.63715891-.86956522c4.1465423 0 4.9816559 2.69796757 5.0140151 6.24448678l.0009999 7.6685567h-4.1780911l-.000875-6.9002233c-.0112885-1.5202715-.1643636-3.3003839-2.1729075-3.3003839-2.1779606 0-2.5095966 1.714587-2.5095966 3.4858001v6.7148071h-4.18200806v-13.5746035h4.01357876v1.85430867h.0574488c.557514-1.06681021 1.9232276-2.19274865 3.9574357-2.19274865zm-12.81048647-6.08695652c1.19907727 0 2.17332756.97372579 2.17332756 2.17332787 0 1.20065539-.97425029 2.17449822-2.17332756 2.17449822-1.20259019 0-2.17449853-.97384283-2.17449853-2.17449822 0-1.19960208.97190834-2.17332787 2.17449853-2.17332787z" fill="#007ab5" fill-rule="evenodd" transform="translate(-2 -1)"></path></svg>
