<svg id="telegram" height="18" viewBox="0 0 22 18" width="22" xmlns="http://www.w3.org/2000/svg"><g fill="none" fill-rule="evenodd" transform="translate(-1 -3)"><path d="m0 0h24v24h-24z"></path><path d="m1.332 11.373c2.251-1.225 4.763-2.247 7.11-3.275 4.04-1.682 8.094-3.336 12.19-4.876.796-.262 2.228-.518 2.368.648-.077 1.652-.393 3.293-.61 4.935-.55 3.61-1.187 7.207-1.807 10.805-.214 1.199-1.734 1.82-2.706 1.052-2.337-1.559-4.692-3.103-7-4.699-.755-.759-.054-1.848.62-2.39 1.925-1.874 3.967-3.466 5.79-5.437.493-1.174-.961-.184-1.44.119-2.636 1.794-5.206 3.697-7.984 5.274-1.42.772-3.074.112-4.492-.319-1.272-.52-3.135-1.044-2.039-1.837z" fill="#28a4d7" fill-rule="nonzero"></path></g></svg>
