<svg id="whatsapp" height="24" viewBox="0 0 24 24" width="24" xmlns="http://www.w3.org/2000/svg"><g fill="none" fill-rule="evenodd"><path d="m20.5032676 3.48770538c-2.2561129-2.24794536-5.2564709-3.48645085-8.4531895-3.48770538-6.58658913 0-11.9472853 5.33465756-11.94992101 11.8917398-.00085947 2.0960903.54937424 4.1419994 1.59512196 5.9456133l-1.69527905 6.1626469 6.33476396-1.6538117c1.7454149.9474547 3.71056804 1.4468714 5.71055844 1.4475557h.0048703.0000573c6.5859016 0 11.9471134-5.3352278 11.94975-11.8924812.0012024-3.17766553-1.2406195-6.1656691-3.4967324-8.41355742" fill="#fff"></path><path d="m6.99094187 20.4074274-.36263971-.2142394-3.75915682.981384 1.00334713-3.6476008-.23612549-.3739638c-.99423673-1.5738069-1.51931657-3.3927033-1.51857407-5.2604692.0021797-5.45001726 4.45779499-9.88397984 9.93635339-9.88397984 2.6529023.00091239 5.1466877 1.03048174 7.0219401 2.89887496 1.8751951 1.86833621 2.9073059 4.35190496 2.9063339 6.99303118-.0022367 5.4504734-4.457852 9.8847781-9.9322276 9.8847781-1.7862111-.0006842-3.53426175-.4771773-5.05925083-1.3778152z" fill="#25d366"></path><path d="m17.4982112 14.3820944c-.2985804-.1486617-1.7665006-.8675069-2.0402137-.9667288-.273713-.0991648-.4727666-.1487187-.6718203.1486617-.1990536.2974945-.7712325.9668429-.945476 1.1652296-.1741289.1982156-.3483152.2231351-.6468383.0743594-.2986377-.1487758-1.2607302-.4625222-2.4011917-1.4749843-.88766227-.7879014-1.48688586-1.7609599-1.6610721-2.0585114-.17412895-.2974375-.01850729-.4582453.13098347-.6064509.13430676-.1331511.29858042-.3471054.44784199-.5205726.14931886-.17352419.19905362-.29755151.29858044-.49571011.0995268-.19838669.049792-.3719109-.02486739-.52062964-.07465943-.14871874-.67182029-1.61144283-.92060866-2.20648886-.24237099-.5793074-.48852365-.50084229-.67182029-.51008019-.17395705-.00861063-.37323986-.0104354-.57223618-.0104354-.19905362 0-.52255873.07435937-.79621448.37179685-.27371305.29755153-1.04506015 1.01645381-1.04506015 2.47906385 0 1.4626671 1.06992753 2.8756092 1.21924639 3.0739388.14926157.1983867 2.10541889 3.1997909 5.10067736 4.486995.7123874.3061621 1.2685801.4890383 1.7021548.625896.7153096.2262715 1.3662161.194338 1.8806385.1178117.5736686-.085308 1.7665578-.7188452 2.0154035-1.4129421.2487884-.6942108.2487884-1.2891428.174129-1.4130561-.0746022-.1239703-.2736558-.1983867-.5722362-.3471625" fill="#fff"></path></g></svg>
